{"title":"Irene Huss, Jagat Vittne 2011 DVDrip Swedisch Klam","uid":6947751,"size":1543993731,"categoryP":"video","categoryS":"movies","magnet":"?xt=urn:btih:a6baa8e231a2dc5dcec30265d3c94026e79102c3&amp;dn=Irene+Huss%2C+Jagat+Vittne+2011+DVDrip+Swedisch+Klam&amp;tr=udp%3A%2F%2Ftracker.openbittorrent.com%3A80&amp;tr=udp%3A%2F%2Fopen.demonii.com%3A1337&amp;tr=udp%3A%2F%2Ftracker.coppersurfer.tk%3A6969&amp;tr=udp%3A%2F%2Fexodus.desync.com%3A6969","seeders":0,"leechers":1,"uploader":"Klambake","files":-1,"time":1326294063,"description":"Wat gebeurt er als men getuige is van een verschrikkelijke misdaad, en zelf dan het slachtoffer wordt?\n\nA young beautiful woman is found dead in Gota and on her finger she wears a diamond fitted wedding ring belonging to someone else. Detective Inspector Irene Huss and her colleagues are put on the case and get immediately a problem. An autopsy shows that the cause of death is not drowning, but a head injury. Who is she? She is not missing, no one can identify her, no one knows anything. While in a run-down barracks area sits a battered husband who broods on a terrible secret...\n\n------------------------ Dutch Friends ------------------------\n---------------------------------------------------------------\n- Bezoek ook eens mijn vrienden op: &lt;a href=&quot; http://www.Film-Test.nl&quot; rel=&quot;nofollow&quot; target=&quot;_NEW&quot;&gt; http://www.Film-Test.nl&lt;/a&gt; --\n----- voor mijn Nederlandse Sync. ondertitels ---- en meer ----\n------- http://www.Film-Test.nl ---- voor Films en meer -------\n---------------------------------------------------------------\n\nGeneral:\n\nComplete name                    : Irene Huss, Jagat Vittne\\Irene Huss, Jagat Vittne.avi\nFormat                           : AVI\nFormat/Info                      : Audio Video Interleave\nFile size                        : 1.44 GiB\nDuration                         : 1h 29mn\nOverall bit rate                 : 2 311 Kbps\n\nVideo:\n\nFormat                           : MPEG-4 Visual\nFormat profile                   : Simple@L3\nFormat settings, BVOP            : No\nFormat settings, QPel            : No\nFormat settings, GMC             : No warppoints\nFormat settings, Matrix          : Default (H.263)\nCodec ID                         : XVID\nCodec ID/Hint                    : XviD\nDuration                         : 1h 29mn\nBit rate                         : 1 852 Kbps\nWidth                            : 652 pixels\nHeight                           : 352 pixels\nDisplay aspect ratio             : 1.852\nFrame rate                       : 25.000 fps\nColor space                      : YUV\nChroma subsampling               : 4:2:0\nBit depth                        : 8 bits\nScan type                        : Progressive\nCompression mode                 : Lossy\nBits/(Pixel*Frame)               : 0.323\nStream size                      : 1.15 GiB (80%)\nWriting library                  : XviD 1.1.2 (UTC 2006-11-01)\n\nAudio:\n\nFormat                           : AC-3\nFormat/Info                      : Audio Coding 3\nMode extension                   : CM (complete main)\nCodec ID                         : 2000\nDuration                         : 1h 29mn\nBit rate mode                    : Constant\nBit rate                         : 448 Kbps\nChannel(s)                       : 6 channels\nChannel positions                : Front: L C R, Side: L R, LFE\nSampling rate                    : 48.0 KHz\nBit depth                        : 16 bits\nCompression mode                 : Lossy\nStream size                      : 285 MiB (19%)\nAlignment                        : Aligned on interleaves\nInterleave, duration             : 32 ms (0.80 video frame)\nInterleave, preload duration     : 32 ms\n\n","torrent":{"xt":"urn:btih:a6baa8e231a2dc5dcec30265d3c94026e79102c3","amp;dn":"Irene+Huss%2C+Jagat+Vittne+2011+DVDrip+Swedisch+Klam","amp;tr":["udp%3A%2F%2Ftracker.openbittorrent.com%3A80","udp%3A%2F%2Fopen.demonii.com%3A1337","udp%3A%2F%2Ftracker.coppersurfer.tk%3A6969","udp%3A%2F%2Fexodus.desync.com%3A6969"],"infoHash":"a6baa8e231a2dc5dcec30265d3c94026e79102c3","infoHashBuffer":{"type":"Buffer","data":[166,186,168,226,49,162,220,93,206,195,2,101,211,201,64,38,231,145,2,195]},"announce":[],"urlList":[]}}